<svg id="logo" width="728" height="700" viewBox="0 0 728 80" fill="none" xmlns="http://www.w3.org/2000/svg">
    <style>

        * {
            stroke-dasharray: 3186;
            animation-name: anim;
            animation-duration: 10s;
            animation-timing-function: linear;
            animation-iteration-count: 1;
        }

        *:hover {
            animation: anim ease-out 1s;
        }

        @keyframes anim {
            0% {
                stroke-dashoffset: 3186;
            }

            100% {
                stroke-dashoffset: 0;
            }
        }
    </style>
    <mask id="path-1-outside-1_4_3" maskUnits="userSpaceOnUse" x="0.454559" y="0" width="728" height="80" fill="green">
        <rect fill="green" x="0.454559" width="728" height="80" />
        <path
            d="M3.45456 5.18182H13.5455L37.2727 63.1364H38.0909L61.8182 5.18182H71.9091V75H64V21.9545H63.3182L41.5 75H33.8637L12.0455 21.9545H11.3636V75H3.45456V5.18182Z" />
        <path
            d="M87.7699 75V22.6364H95.8154V75H87.7699ZM91.8608 13.9091C90.2926 13.9091 88.9404 13.375 87.804 12.3068C86.6904 11.2386 86.1335 9.95455 86.1335 8.45455C86.1335 6.95455 86.6904 5.67045 87.804 4.60227C88.9404 3.53409 90.2926 3 91.8608 3C93.429 3 94.7699 3.53409 95.8835 4.60227C97.0199 5.67045 97.5881 6.95455 97.5881 8.45455C97.5881 9.95455 97.0199 11.2386 95.8835 12.3068C94.7699 13.375 93.429 13.9091 91.8608 13.9091Z" />
        <path
            d="M118.597 43.5V75H110.551V22.6364H118.324V30.8182H119.006C120.233 28.1591 122.097 26.0227 124.597 24.4091C127.097 22.7727 130.324 21.9545 134.278 21.9545C137.824 21.9545 140.926 22.6818 143.585 24.1364C146.244 25.5682 148.313 27.75 149.79 30.6818C151.267 33.5909 152.006 37.2727 152.006 41.7273V75H143.96V42.2727C143.96 38.1591 142.892 34.9545 140.756 32.6591C138.619 30.3409 135.688 29.1818 131.96 29.1818C129.392 29.1818 127.097 29.7386 125.074 30.8523C123.074 31.9659 121.494 33.5909 120.335 35.7273C119.176 37.8636 118.597 40.4545 118.597 43.5Z" />
        <path
            d="M166.707 75V22.6364H174.753V75H166.707ZM170.798 13.9091C169.23 13.9091 167.878 13.375 166.741 12.3068C165.628 11.2386 165.071 9.95455 165.071 8.45455C165.071 6.95455 165.628 5.67045 166.741 4.60227C167.878 3.53409 169.23 3 170.798 3C172.366 3 173.707 3.53409 174.821 4.60227C175.957 5.67045 176.526 6.95455 176.526 8.45455C176.526 9.95455 175.957 11.2386 174.821 12.3068C173.707 13.375 172.366 13.9091 170.798 13.9091Z" />
        <path
            d="M189.489 75V22.6364H197.261V30.8182H197.943C199.034 28.0227 200.795 25.8523 203.227 24.3068C205.659 22.7386 208.58 21.9545 211.989 21.9545C215.443 21.9545 218.318 22.7386 220.614 24.3068C222.932 25.8523 224.739 28.0227 226.034 30.8182H226.58C227.92 28.1136 229.932 25.9659 232.614 24.375C235.295 22.7614 238.511 21.9545 242.261 21.9545C246.943 21.9545 250.773 23.4205 253.75 26.3523C256.727 29.2614 258.216 33.7955 258.216 39.9545V75H250.17V39.9545C250.17 36.0909 249.114 33.3295 247 31.6705C244.886 30.0114 242.398 29.1818 239.534 29.1818C235.852 29.1818 233 30.2955 230.977 32.5227C228.955 34.7273 227.943 37.5227 227.943 40.9091V75H219.761V39.1364C219.761 36.1591 218.795 33.7614 216.864 31.9432C214.932 30.1023 212.443 29.1818 209.398 29.1818C207.307 29.1818 205.352 29.7386 203.534 30.8523C201.739 31.9659 200.284 33.5114 199.17 35.4886C198.08 37.4432 197.534 39.7045 197.534 42.2727V75H189.489Z" />
        <path
            d="M288.335 76.2273C285.017 76.2273 282.006 75.6023 279.301 74.3523C276.597 73.0795 274.449 71.25 272.858 68.8636C271.267 66.4545 270.472 63.5455 270.472 60.1364C270.472 57.1364 271.063 54.7045 272.244 52.8409C273.426 50.9545 275.006 49.4773 276.983 48.4091C278.96 47.3409 281.142 46.5455 283.528 46.0227C285.938 45.4773 288.358 45.0455 290.79 44.7273C293.972 44.3182 296.551 44.0114 298.528 43.8068C300.528 43.5795 301.983 43.2045 302.892 42.6818C303.824 42.1591 304.29 41.25 304.29 39.9545V39.6818C304.29 36.3182 303.369 33.7045 301.528 31.8409C299.71 29.9773 296.949 29.0455 293.244 29.0455C289.403 29.0455 286.392 29.8864 284.21 31.5682C282.028 33.25 280.494 35.0455 279.608 36.9545L271.972 34.2273C273.335 31.0455 275.153 28.5682 277.426 26.7955C279.722 25 282.222 23.75 284.926 23.0455C287.653 22.3182 290.335 21.9545 292.972 21.9545C294.653 21.9545 296.585 22.1591 298.767 22.5682C300.972 22.9545 303.097 23.7614 305.142 24.9886C307.21 26.2159 308.926 28.0682 310.29 30.5455C311.653 33.0227 312.335 36.3409 312.335 40.5V75H304.29V67.9091H303.881C303.335 69.0455 302.426 70.2614 301.153 71.5568C299.881 72.8523 298.187 73.9545 296.074 74.8636C293.96 75.7727 291.381 76.2273 288.335 76.2273ZM289.562 69C292.744 69 295.426 68.375 297.608 67.125C299.813 65.875 301.472 64.2614 302.585 62.2841C303.722 60.3068 304.29 58.2273 304.29 56.0455V48.6818C303.949 49.0909 303.199 49.4659 302.04 49.8068C300.903 50.125 299.585 50.4091 298.085 50.6591C296.608 50.8864 295.165 51.0909 293.756 51.2727C292.369 51.4318 291.244 51.5682 290.381 51.6818C288.29 51.9545 286.335 52.3977 284.517 53.0114C282.722 53.6023 281.267 54.5 280.153 55.7045C279.063 56.8864 278.517 58.5 278.517 60.5455C278.517 63.3409 279.551 65.4545 281.619 66.8864C283.71 68.2955 286.358 69 289.562 69Z" />
        <path d="M335.065 5.18182V75H327.02V5.18182H335.065Z" />
        <path
            d="M349.801 75V22.6364H357.847V75H349.801ZM353.892 13.9091C352.324 13.9091 350.972 13.375 349.835 12.3068C348.722 11.2386 348.165 9.95455 348.165 8.45455C348.165 6.95455 348.722 5.67045 349.835 4.60227C350.972 3.53409 352.324 3 353.892 3C355.46 3 356.801 3.53409 357.915 4.60227C359.051 5.67045 359.619 6.95455 359.619 8.45455C359.619 9.95455 359.051 11.2386 357.915 12.3068C356.801 13.375 355.46 13.9091 353.892 13.9091Z" />
        <path
            d="M409.673 34.3636L402.446 36.4091C401.991 35.2045 401.321 34.0341 400.435 32.8977C399.571 31.7386 398.389 30.7841 396.889 30.0341C395.389 29.2841 393.469 28.9091 391.128 28.9091C387.923 28.9091 385.253 29.6477 383.116 31.125C381.003 32.5795 379.946 34.4318 379.946 36.6818C379.946 38.6818 380.673 40.2614 382.128 41.4205C383.582 42.5795 385.855 43.5455 388.946 44.3182L396.719 46.2273C401.401 47.3636 404.889 49.1023 407.185 51.4432C409.48 53.7614 410.628 56.75 410.628 60.4091C410.628 63.4091 409.764 66.0909 408.037 68.4545C406.332 70.8182 403.946 72.6818 400.878 74.0455C397.81 75.4091 394.241 76.0909 390.173 76.0909C384.832 76.0909 380.412 74.9318 376.912 72.6136C373.412 70.2955 371.196 66.9091 370.264 62.4545L377.901 60.5455C378.628 63.3636 380.003 65.4773 382.026 66.8864C384.071 68.2955 386.741 69 390.037 69C393.787 69 396.764 68.2045 398.969 66.6136C401.196 65 402.31 63.0682 402.31 60.8182C402.31 59 401.673 57.4773 400.401 56.25C399.128 55 397.173 54.0682 394.537 53.4545L385.81 51.4091C381.014 50.2727 377.491 48.5114 375.241 46.125C373.014 43.7159 371.901 40.7045 371.901 37.0909C371.901 34.1364 372.73 31.5227 374.389 29.25C376.071 26.9773 378.355 25.1932 381.241 23.8977C384.151 22.6023 387.446 21.9545 391.128 21.9545C396.31 21.9545 400.378 23.0909 403.332 25.3636C406.31 27.6364 408.423 30.6364 409.673 34.3636Z" />
        <path
            d="M445.511 22.6364V29.4545H418.375V22.6364H445.511ZM426.284 10.0909H434.33V60C434.33 62.2727 434.659 63.9773 435.318 65.1136C436 66.2273 436.864 66.9773 437.909 67.3636C438.977 67.7273 440.102 67.9091 441.284 67.9091C442.17 67.9091 442.898 67.8636 443.466 67.7727C444.034 67.6591 444.489 67.5682 444.83 67.5L446.466 74.7273C445.92 74.9318 445.159 75.1364 444.182 75.3409C443.205 75.5682 441.966 75.6818 440.466 75.6818C438.193 75.6818 435.966 75.1932 433.784 74.2159C431.625 73.2386 429.83 71.75 428.398 69.75C426.989 67.75 426.284 65.2273 426.284 62.1818V10.0909Z" />
        <path
            d="M459.83 75V5.18182H483.42C488.898 5.18182 493.375 6.17045 496.852 8.14772C500.352 10.1023 502.943 12.75 504.625 16.0909C506.307 19.4318 507.148 23.1591 507.148 27.2727C507.148 31.3864 506.307 35.125 504.625 38.4886C502.966 41.8523 500.398 44.5341 496.92 46.5341C493.443 48.5114 488.989 49.5 483.557 49.5H466.648V42H483.284C487.034 42 490.045 41.3523 492.318 40.0568C494.591 38.7614 496.239 37.0114 497.261 34.8068C498.307 32.5795 498.83 30.0682 498.83 27.2727C498.83 24.4773 498.307 21.9773 497.261 19.7727C496.239 17.5682 494.58 15.8409 492.284 14.5909C489.989 13.3182 486.943 12.6818 483.148 12.6818H468.284V75H459.83Z" />
        <path
            d="M541.068 76.0909C536.023 76.0909 531.67 74.9773 528.011 72.75C524.375 70.5 521.568 67.3636 519.591 63.3409C517.636 59.2955 516.659 54.5909 516.659 49.2273C516.659 43.8636 517.636 39.1364 519.591 35.0455C521.568 30.9318 524.318 27.7273 527.841 25.4318C531.386 23.1136 535.523 21.9545 540.25 21.9545C542.977 21.9545 545.67 22.4091 548.33 23.3182C550.989 24.2273 553.409 25.7045 555.591 27.75C557.773 29.7727 559.511 32.4545 560.807 35.7955C562.102 39.1364 562.75 43.25 562.75 48.1364V51.5455H522.386V44.5909H554.568C554.568 41.6364 553.977 39 552.796 36.6818C551.636 34.3636 549.977 32.5341 547.818 31.1932C545.682 29.8523 543.159 29.1818 540.25 29.1818C537.045 29.1818 534.273 29.9773 531.932 31.5682C529.614 33.1364 527.83 35.1818 526.58 37.7045C525.33 40.2273 524.705 42.9318 524.705 45.8182V50.4545C524.705 54.4091 525.386 57.7614 526.75 60.5114C528.136 63.2386 530.057 65.3182 532.511 66.75C534.966 68.1591 537.818 68.8636 541.068 68.8636C543.182 68.8636 545.091 68.5682 546.796 67.9773C548.523 67.3636 550.011 66.4545 551.261 65.25C552.511 64.0227 553.477 62.5 554.159 60.6818L561.932 62.8636C561.114 65.5 559.739 67.8182 557.807 69.8182C555.875 71.7955 553.489 73.3409 550.648 74.4545C547.807 75.5455 544.614 76.0909 541.068 76.0909Z" />
        <path
            d="M590.398 76.2273C587.08 76.2273 584.068 75.6023 581.364 74.3523C578.659 73.0795 576.511 71.25 574.921 68.8636C573.33 66.4545 572.534 63.5455 572.534 60.1364C572.534 57.1364 573.125 54.7045 574.307 52.8409C575.489 50.9545 577.068 49.4773 579.046 48.4091C581.023 47.3409 583.205 46.5455 585.591 46.0227C588 45.4773 590.421 45.0455 592.852 44.7273C596.034 44.3182 598.614 44.0114 600.591 43.8068C602.591 43.5795 604.045 43.2045 604.955 42.6818C605.886 42.1591 606.352 41.25 606.352 39.9545V39.6818C606.352 36.3182 605.432 33.7045 603.591 31.8409C601.773 29.9773 599.011 29.0455 595.307 29.0455C591.466 29.0455 588.455 29.8864 586.273 31.5682C584.091 33.25 582.557 35.0455 581.671 36.9545L574.034 34.2273C575.398 31.0455 577.216 28.5682 579.489 26.7955C581.784 25 584.284 23.75 586.989 23.0455C589.716 22.3182 592.398 21.9545 595.034 21.9545C596.716 21.9545 598.648 22.1591 600.83 22.5682C603.034 22.9545 605.159 23.7614 607.205 24.9886C609.273 26.2159 610.989 28.0682 612.352 30.5455C613.716 33.0227 614.398 36.3409 614.398 40.5V75H606.352V67.9091H605.943C605.398 69.0455 604.489 70.2614 603.216 71.5568C601.943 72.8523 600.25 73.9545 598.136 74.8636C596.023 75.7727 593.443 76.2273 590.398 76.2273ZM591.625 69C594.807 69 597.489 68.375 599.671 67.125C601.875 65.875 603.534 64.2614 604.648 62.2841C605.784 60.3068 606.352 58.2273 606.352 56.0455V48.6818C606.011 49.0909 605.261 49.4659 604.102 49.8068C602.966 50.125 601.648 50.4091 600.148 50.6591C598.67 50.8864 597.227 51.0909 595.818 51.2727C594.432 51.4318 593.307 51.5682 592.443 51.6818C590.352 51.9545 588.398 52.3977 586.58 53.0114C584.784 53.6023 583.33 54.5 582.216 55.7045C581.125 56.8864 580.58 58.5 580.58 60.5455C580.58 63.3409 581.614 65.4545 583.682 66.8864C585.773 68.2955 588.42 69 591.625 69Z" />
        <path
            d="M650.355 76.0909C645.446 76.0909 641.219 74.9318 637.673 72.6136C634.128 70.2955 631.401 67.1023 629.491 63.0341C627.582 58.9659 626.628 54.3182 626.628 49.0909C626.628 43.7727 627.605 39.0795 629.56 35.0114C631.537 30.9205 634.287 27.7273 637.81 25.4318C641.355 23.1136 645.492 21.9545 650.219 21.9545C653.901 21.9545 657.219 22.6364 660.173 24C663.128 25.3636 665.548 27.2727 667.435 29.7273C669.321 32.1818 670.492 35.0455 670.946 38.3182H662.901C662.287 35.9318 660.923 33.8182 658.81 31.9773C656.719 30.1136 653.901 29.1818 650.355 29.1818C647.219 29.1818 644.469 30 642.105 31.6364C639.764 33.25 637.935 35.5341 636.616 38.4886C635.321 41.4205 634.673 44.8636 634.673 48.8182C634.673 52.8636 635.31 56.3864 636.582 59.3864C637.878 62.3864 639.696 64.7159 642.037 66.375C644.401 68.0341 647.173 68.8636 650.355 68.8636C652.446 68.8636 654.344 68.5 656.048 67.7727C657.753 67.0455 659.196 66 660.378 64.6364C661.56 63.2727 662.401 61.6364 662.901 59.7273H670.946C670.492 62.8182 669.367 65.6023 667.571 68.0795C665.798 70.5341 663.446 72.4886 660.514 73.9432C657.605 75.375 654.219 76.0909 650.355 76.0909Z" />
        <path
            d="M690.753 43.5V75H682.707V5.18182H690.753V30.8182H691.435C692.662 28.1136 694.503 25.9659 696.957 24.375C699.435 22.7614 702.73 21.9545 706.844 21.9545C710.412 21.9545 713.537 22.6705 716.219 24.1023C718.901 25.5114 720.98 27.6818 722.457 30.6136C723.957 33.5227 724.707 37.2273 724.707 41.7273V75H716.662V42.2727C716.662 38.1136 715.582 34.8977 713.423 32.625C711.287 30.3295 708.321 29.1818 704.526 29.1818C701.889 29.1818 699.526 29.7386 697.435 30.8523C695.366 31.9659 693.73 33.5909 692.526 35.7273C691.344 37.8636 690.753 40.4545 690.753 43.5Z" />
    </mask>
    <path
        d="M3.45456 5.18182H13.5455L37.2727 63.1364H38.0909L61.8182 5.18182H71.9091V75H64V21.9545H63.3182L41.5 75H33.8637L12.0455 21.9545H11.3636V75H3.45456V5.18182Z"
        stroke="blue" stroke-width="2" mask="url(#path-1-outside-1_4_3)" />
    <path
        d="M87.7699 75V22.6364H95.8154V75H87.7699ZM91.8608 13.9091C90.2926 13.9091 88.9404 13.375 87.804 12.3068C86.6904 11.2386 86.1335 9.95455 86.1335 8.45455C86.1335 6.95455 86.6904 5.67045 87.804 4.60227C88.9404 3.53409 90.2926 3 91.8608 3C93.429 3 94.7699 3.53409 95.8835 4.60227C97.0199 5.67045 97.5881 6.95455 97.5881 8.45455C97.5881 9.95455 97.0199 11.2386 95.8835 12.3068C94.7699 13.375 93.429 13.9091 91.8608 13.9091Z"
        stroke="white" stroke-width="2" mask="url(#path-1-outside-1_4_3)" />
    <path
        d="M118.597 43.5V75H110.551V22.6364H118.324V30.8182H119.006C120.233 28.1591 122.097 26.0227 124.597 24.4091C127.097 22.7727 130.324 21.9545 134.278 21.9545C137.824 21.9545 140.926 22.6818 143.585 24.1364C146.244 25.5682 148.313 27.75 149.79 30.6818C151.267 33.5909 152.006 37.2727 152.006 41.7273V75H143.96V42.2727C143.96 38.1591 142.892 34.9545 140.756 32.6591C138.619 30.3409 135.688 29.1818 131.96 29.1818C129.392 29.1818 127.097 29.7386 125.074 30.8523C123.074 31.9659 121.494 33.5909 120.335 35.7273C119.176 37.8636 118.597 40.4545 118.597 43.5Z"
        stroke="white" stroke-width="2" mask="url(#path-1-outside-1_4_3)" />
    <path
        d="M166.707 75V22.6364H174.753V75H166.707ZM170.798 13.9091C169.23 13.9091 167.878 13.375 166.741 12.3068C165.628 11.2386 165.071 9.95455 165.071 8.45455C165.071 6.95455 165.628 5.67045 166.741 4.60227C167.878 3.53409 169.23 3 170.798 3C172.366 3 173.707 3.53409 174.821 4.60227C175.957 5.67045 176.526 6.95455 176.526 8.45455C176.526 9.95455 175.957 11.2386 174.821 12.3068C173.707 13.375 172.366 13.9091 170.798 13.9091Z"
        stroke="white" stroke-width="2" mask="url(#path-1-outside-1_4_3)" />
    <path
        d="M189.489 75V22.6364H197.261V30.8182H197.943C199.034 28.0227 200.795 25.8523 203.227 24.3068C205.659 22.7386 208.58 21.9545 211.989 21.9545C215.443 21.9545 218.318 22.7386 220.614 24.3068C222.932 25.8523 224.739 28.0227 226.034 30.8182H226.58C227.92 28.1136 229.932 25.9659 232.614 24.375C235.295 22.7614 238.511 21.9545 242.261 21.9545C246.943 21.9545 250.773 23.4205 253.75 26.3523C256.727 29.2614 258.216 33.7955 258.216 39.9545V75H250.17V39.9545C250.17 36.0909 249.114 33.3295 247 31.6705C244.886 30.0114 242.398 29.1818 239.534 29.1818C235.852 29.1818 233 30.2955 230.977 32.5227C228.955 34.7273 227.943 37.5227 227.943 40.9091V75H219.761V39.1364C219.761 36.1591 218.795 33.7614 216.864 31.9432C214.932 30.1023 212.443 29.1818 209.398 29.1818C207.307 29.1818 205.352 29.7386 203.534 30.8523C201.739 31.9659 200.284 33.5114 199.17 35.4886C198.08 37.4432 197.534 39.7045 197.534 42.2727V75H189.489Z"
        stroke="white" stroke-width="2" mask="url(#path-1-outside-1_4_3)" />
    <path
        d="M288.335 76.2273C285.017 76.2273 282.006 75.6023 279.301 74.3523C276.597 73.0795 274.449 71.25 272.858 68.8636C271.267 66.4545 270.472 63.5455 270.472 60.1364C270.472 57.1364 271.063 54.7045 272.244 52.8409C273.426 50.9545 275.006 49.4773 276.983 48.4091C278.96 47.3409 281.142 46.5455 283.528 46.0227C285.938 45.4773 288.358 45.0455 290.79 44.7273C293.972 44.3182 296.551 44.0114 298.528 43.8068C300.528 43.5795 301.983 43.2045 302.892 42.6818C303.824 42.1591 304.29 41.25 304.29 39.9545V39.6818C304.29 36.3182 303.369 33.7045 301.528 31.8409C299.71 29.9773 296.949 29.0455 293.244 29.0455C289.403 29.0455 286.392 29.8864 284.21 31.5682C282.028 33.25 280.494 35.0455 279.608 36.9545L271.972 34.2273C273.335 31.0455 275.153 28.5682 277.426 26.7955C279.722 25 282.222 23.75 284.926 23.0455C287.653 22.3182 290.335 21.9545 292.972 21.9545C294.653 21.9545 296.585 22.1591 298.767 22.5682C300.972 22.9545 303.097 23.7614 305.142 24.9886C307.21 26.2159 308.926 28.0682 310.29 30.5455C311.653 33.0227 312.335 36.3409 312.335 40.5V75H304.29V67.9091H303.881C303.335 69.0455 302.426 70.2614 301.153 71.5568C299.881 72.8523 298.187 73.9545 296.074 74.8636C293.96 75.7727 291.381 76.2273 288.335 76.2273ZM289.562 69C292.744 69 295.426 68.375 297.608 67.125C299.813 65.875 301.472 64.2614 302.585 62.2841C303.722 60.3068 304.29 58.2273 304.29 56.0455V48.6818C303.949 49.0909 303.199 49.4659 302.04 49.8068C300.903 50.125 299.585 50.4091 298.085 50.6591C296.608 50.8864 295.165 51.0909 293.756 51.2727C292.369 51.4318 291.244 51.5682 290.381 51.6818C288.29 51.9545 286.335 52.3977 284.517 53.0114C282.722 53.6023 281.267 54.5 280.153 55.7045C279.063 56.8864 278.517 58.5 278.517 60.5455C278.517 63.3409 279.551 65.4545 281.619 66.8864C283.71 68.2955 286.358 69 289.562 69Z"
        stroke="white" stroke-width="2" mask="url(#path-1-outside-1_4_3)" />
    <path d="M335.065 5.18182V75H327.02V5.18182H335.065Z" stroke="white" stroke-width="2"
        mask="url(#path-1-outside-1_4_3)" />
    <path
        d="M349.801 75V22.6364H357.847V75H349.801ZM353.892 13.9091C352.324 13.9091 350.972 13.375 349.835 12.3068C348.722 11.2386 348.165 9.95455 348.165 8.45455C348.165 6.95455 348.722 5.67045 349.835 4.60227C350.972 3.53409 352.324 3 353.892 3C355.46 3 356.801 3.53409 357.915 4.60227C359.051 5.67045 359.619 6.95455 359.619 8.45455C359.619 9.95455 359.051 11.2386 357.915 12.3068C356.801 13.375 355.46 13.9091 353.892 13.9091Z"
        stroke="white" stroke-width="2" mask="url(#path-1-outside-1_4_3)" />
    <path
        d="M409.673 34.3636L402.446 36.4091C401.991 35.2045 401.321 34.0341 400.435 32.8977C399.571 31.7386 398.389 30.7841 396.889 30.0341C395.389 29.2841 393.469 28.9091 391.128 28.9091C387.923 28.9091 385.253 29.6477 383.116 31.125C381.003 32.5795 379.946 34.4318 379.946 36.6818C379.946 38.6818 380.673 40.2614 382.128 41.4205C383.582 42.5795 385.855 43.5455 388.946 44.3182L396.719 46.2273C401.401 47.3636 404.889 49.1023 407.185 51.4432C409.48 53.7614 410.628 56.75 410.628 60.4091C410.628 63.4091 409.764 66.0909 408.037 68.4545C406.332 70.8182 403.946 72.6818 400.878 74.0455C397.81 75.4091 394.241 76.0909 390.173 76.0909C384.832 76.0909 380.412 74.9318 376.912 72.6136C373.412 70.2955 371.196 66.9091 370.264 62.4545L377.901 60.5455C378.628 63.3636 380.003 65.4773 382.026 66.8864C384.071 68.2955 386.741 69 390.037 69C393.787 69 396.764 68.2045 398.969 66.6136C401.196 65 402.31 63.0682 402.31 60.8182C402.31 59 401.673 57.4773 400.401 56.25C399.128 55 397.173 54.0682 394.537 53.4545L385.81 51.4091C381.014 50.2727 377.491 48.5114 375.241 46.125C373.014 43.7159 371.901 40.7045 371.901 37.0909C371.901 34.1364 372.73 31.5227 374.389 29.25C376.071 26.9773 378.355 25.1932 381.241 23.8977C384.151 22.6023 387.446 21.9545 391.128 21.9545C396.31 21.9545 400.378 23.0909 403.332 25.3636C406.31 27.6364 408.423 30.6364 409.673 34.3636Z"
        stroke="white" stroke-width="2" mask="url(#path-1-outside-1_4_3)" />
    <path
        d="M445.511 22.6364V29.4545H418.375V22.6364H445.511ZM426.284 10.0909H434.33V60C434.33 62.2727 434.659 63.9773 435.318 65.1136C436 66.2273 436.864 66.9773 437.909 67.3636C438.977 67.7273 440.102 67.9091 441.284 67.9091C442.17 67.9091 442.898 67.8636 443.466 67.7727C444.034 67.6591 444.489 67.5682 444.83 67.5L446.466 74.7273C445.92 74.9318 445.159 75.1364 444.182 75.3409C443.205 75.5682 441.966 75.6818 440.466 75.6818C438.193 75.6818 435.966 75.1932 433.784 74.2159C431.625 73.2386 429.83 71.75 428.398 69.75C426.989 67.75 426.284 65.2273 426.284 62.1818V10.0909Z"
        stroke="white" stroke-width="2" mask="url(#path-1-outside-1_4_3)" />
    <path
        d="M459.83 75V5.18182H483.42C488.898 5.18182 493.375 6.17045 496.852 8.14772C500.352 10.1023 502.943 12.75 504.625 16.0909C506.307 19.4318 507.148 23.1591 507.148 27.2727C507.148 31.3864 506.307 35.125 504.625 38.4886C502.966 41.8523 500.398 44.5341 496.92 46.5341C493.443 48.5114 488.989 49.5 483.557 49.5H466.648V42H483.284C487.034 42 490.045 41.3523 492.318 40.0568C494.591 38.7614 496.239 37.0114 497.261 34.8068C498.307 32.5795 498.83 30.0682 498.83 27.2727C498.83 24.4773 498.307 21.9773 497.261 19.7727C496.239 17.5682 494.58 15.8409 492.284 14.5909C489.989 13.3182 486.943 12.6818 483.148 12.6818H468.284V75H459.83Z"
        stroke="white" stroke-width="2" mask="url(#path-1-outside-1_4_3)" />
    <path
        d="M541.068 76.0909C536.023 76.0909 531.67 74.9773 528.011 72.75C524.375 70.5 521.568 67.3636 519.591 63.3409C517.636 59.2955 516.659 54.5909 516.659 49.2273C516.659 43.8636 517.636 39.1364 519.591 35.0455C521.568 30.9318 524.318 27.7273 527.841 25.4318C531.386 23.1136 535.523 21.9545 540.25 21.9545C542.977 21.9545 545.67 22.4091 548.33 23.3182C550.989 24.2273 553.409 25.7045 555.591 27.75C557.773 29.7727 559.511 32.4545 560.807 35.7955C562.102 39.1364 562.75 43.25 562.75 48.1364V51.5455H522.386V44.5909H554.568C554.568 41.6364 553.977 39 552.796 36.6818C551.636 34.3636 549.977 32.5341 547.818 31.1932C545.682 29.8523 543.159 29.1818 540.25 29.1818C537.045 29.1818 534.273 29.9773 531.932 31.5682C529.614 33.1364 527.83 35.1818 526.58 37.7045C525.33 40.2273 524.705 42.9318 524.705 45.8182V50.4545C524.705 54.4091 525.386 57.7614 526.75 60.5114C528.136 63.2386 530.057 65.3182 532.511 66.75C534.966 68.1591 537.818 68.8636 541.068 68.8636C543.182 68.8636 545.091 68.5682 546.796 67.9773C548.523 67.3636 550.011 66.4545 551.261 65.25C552.511 64.0227 553.477 62.5 554.159 60.6818L561.932 62.8636C561.114 65.5 559.739 67.8182 557.807 69.8182C555.875 71.7955 553.489 73.3409 550.648 74.4545C547.807 75.5455 544.614 76.0909 541.068 76.0909Z"
        stroke="white" stroke-width="2" mask="url(#path-1-outside-1_4_3)" />
    <path
        d="M590.398 76.2273C587.08 76.2273 584.068 75.6023 581.364 74.3523C578.659 73.0795 576.511 71.25 574.921 68.8636C573.33 66.4545 572.534 63.5455 572.534 60.1364C572.534 57.1364 573.125 54.7045 574.307 52.8409C575.489 50.9545 577.068 49.4773 579.046 48.4091C581.023 47.3409 583.205 46.5455 585.591 46.0227C588 45.4773 590.421 45.0455 592.852 44.7273C596.034 44.3182 598.614 44.0114 600.591 43.8068C602.591 43.5795 604.045 43.2045 604.955 42.6818C605.886 42.1591 606.352 41.25 606.352 39.9545V39.6818C606.352 36.3182 605.432 33.7045 603.591 31.8409C601.773 29.9773 599.011 29.0455 595.307 29.0455C591.466 29.0455 588.455 29.8864 586.273 31.5682C584.091 33.25 582.557 35.0455 581.671 36.9545L574.034 34.2273C575.398 31.0455 577.216 28.5682 579.489 26.7955C581.784 25 584.284 23.75 586.989 23.0455C589.716 22.3182 592.398 21.9545 595.034 21.9545C596.716 21.9545 598.648 22.1591 600.83 22.5682C603.034 22.9545 605.159 23.7614 607.205 24.9886C609.273 26.2159 610.989 28.0682 612.352 30.5455C613.716 33.0227 614.398 36.3409 614.398 40.5V75H606.352V67.9091H605.943C605.398 69.0455 604.489 70.2614 603.216 71.5568C601.943 72.8523 600.25 73.9545 598.136 74.8636C596.023 75.7727 593.443 76.2273 590.398 76.2273ZM591.625 69C594.807 69 597.489 68.375 599.671 67.125C601.875 65.875 603.534 64.2614 604.648 62.2841C605.784 60.3068 606.352 58.2273 606.352 56.0455V48.6818C606.011 49.0909 605.261 49.4659 604.102 49.8068C602.966 50.125 601.648 50.4091 600.148 50.6591C598.67 50.8864 597.227 51.0909 595.818 51.2727C594.432 51.4318 593.307 51.5682 592.443 51.6818C590.352 51.9545 588.398 52.3977 586.58 53.0114C584.784 53.6023 583.33 54.5 582.216 55.7045C581.125 56.8864 580.58 58.5 580.58 60.5455C580.58 63.3409 581.614 65.4545 583.682 66.8864C585.773 68.2955 588.42 69 591.625 69Z"
        stroke="white" stroke-width="2" mask="url(#path-1-outside-1_4_3)" />
    <path
        d="M650.355 76.0909C645.446 76.0909 641.219 74.9318 637.673 72.6136C634.128 70.2955 631.401 67.1023 629.491 63.0341C627.582 58.9659 626.628 54.3182 626.628 49.0909C626.628 43.7727 627.605 39.0795 629.56 35.0114C631.537 30.9205 634.287 27.7273 637.81 25.4318C641.355 23.1136 645.492 21.9545 650.219 21.9545C653.901 21.9545 657.219 22.6364 660.173 24C663.128 25.3636 665.548 27.2727 667.435 29.7273C669.321 32.1818 670.492 35.0455 670.946 38.3182H662.901C662.287 35.9318 660.923 33.8182 658.81 31.9773C656.719 30.1136 653.901 29.1818 650.355 29.1818C647.219 29.1818 644.469 30 642.105 31.6364C639.764 33.25 637.935 35.5341 636.616 38.4886C635.321 41.4205 634.673 44.8636 634.673 48.8182C634.673 52.8636 635.31 56.3864 636.582 59.3864C637.878 62.3864 639.696 64.7159 642.037 66.375C644.401 68.0341 647.173 68.8636 650.355 68.8636C652.446 68.8636 654.344 68.5 656.048 67.7727C657.753 67.0455 659.196 66 660.378 64.6364C661.56 63.2727 662.401 61.6364 662.901 59.7273H670.946C670.492 62.8182 669.367 65.6023 667.571 68.0795C665.798 70.5341 663.446 72.4886 660.514 73.9432C657.605 75.375 654.219 76.0909 650.355 76.0909Z"
        stroke="white" stroke-width="2" mask="url(#path-1-outside-1_4_3)" />
    <path
        d="M690.753 43.5V75H682.707V5.18182H690.753V30.8182H691.435C692.662 28.1136 694.503 25.9659 696.957 24.375C699.435 22.7614 702.73 21.9545 706.844 21.9545C710.412 21.9545 713.537 22.6705 716.219 24.1023C718.901 25.5114 720.98 27.6818 722.457 30.6136C723.957 33.5227 724.707 37.2273 724.707 41.7273V75H716.662V42.2727C716.662 38.1136 715.582 34.8977 713.423 32.625C711.287 30.3295 708.321 29.1818 704.526 29.1818C701.889 29.1818 699.526 29.7386 697.435 30.8523C695.366 31.9659 693.73 33.5909 692.526 35.7273C691.344 37.8636 690.753 40.4545 690.753 43.5Z"
        stroke="white" stroke-width="2" mask="url(#path-1-outside-1_4_3)" />
</svg>
